<svg xmlns="http://www.w3.org/2000/svg" xmlns:xlink="http://www.w3.org/1999/xlink" width="500" zoomAndPan="magnify" viewBox="0 0 375 374.999991" height="500" preserveAspectRatio="xMidYMid meet" version="1.0"><defs><g/><clipPath id="b4f9ee23cd"><rect x="0" width="260" y="0" height="85"/></clipPath><clipPath id="ffcb503600"><rect x="0" width="344" y="0" height="375"/></clipPath></defs><g transform="matrix(1, 0, 0, 1, 19, 0)"><g clip-path="url(#ffcb503600)"><g fill="#1e1e1e" fill-opacity="1"><g transform="translate(10.417561, 278.3778)"><g><path d="M -2.328125 -179.21875 C -2.328125 -184.800781 -0.234375 -189.6875 3.953125 -193.875 C 8.140625 -198.0625 13.03125 -200.15625 18.625 -200.15625 L 67.5 -200.15625 C 72.15625 -200.15625 76.65625 -198.296875 81 -194.578125 C 85.03125 -196.128906 89.140625 -197.445312 93.328125 -198.53125 C 97.515625 -199.613281 101.9375 -200.15625 106.59375 -200.15625 L 123.8125 -200.15625 C 129.707031 -200.15625 135.679688 -199.300781 141.734375 -197.59375 C 147.785156 -195.882812 153.296875 -193.789062 158.265625 -191.3125 C 168.191406 -197.207031 179.671875 -200.15625 192.703125 -200.15625 L 230.875 -200.15625 C 243.601562 -200.15625 255.242188 -197.128906 265.796875 -191.078125 C 276.347656 -185.023438 284.722656 -177.035156 290.921875 -167.109375 L 303.5 -155 C 310.007812 -148.488281 315.125 -140.960938 318.84375 -132.421875 C 322.570312 -123.890625 324.4375 -114.660156 324.4375 -104.734375 L 324.4375 16.296875 C 324.4375 21.253906 322.5 25.75 318.625 29.78125 C 314.75 33.820312 310.171875 35.84375 304.890625 35.84375 L 256.015625 35.84375 C 251.046875 35.84375 246.546875 33.828125 242.515625 29.796875 L 224.828125 12.5625 C 221.410156 11.007812 218.925781 9.148438 217.375 6.984375 L 217.375 16.296875 C 217.375 21.253906 215.4375 25.75 211.5625 29.78125 C 207.6875 33.820312 203.109375 35.84375 197.828125 35.84375 L 148.953125 35.84375 C 143.984375 35.84375 139.484375 33.828125 135.453125 29.796875 L 117.765625 12.5625 C 114.347656 11.007812 111.863281 9.148438 110.3125 6.984375 L 110.3125 16.296875 C 110.3125 21.253906 108.375 25.75 104.5 29.78125 C 100.625 33.820312 96.046875 35.84375 90.765625 35.84375 L 41.890625 35.84375 C 36.929688 35.84375 32.429688 33.828125 28.390625 29.796875 L 10.703125 12.109375 C 6.984375 10.554688 3.878906 7.992188 1.390625 4.421875 C -1.085938 0.847656 -2.328125 -2.953125 -2.328125 -6.984375 Z M -2.328125 -179.21875 "/></g></g></g><g transform="matrix(1, 0, 0, 1, 27, 105)"><g clip-path="url(#b4f9ee23cd)"><g fill="#e4e2dd" fill-opacity="1"><g transform="translate(0.121896, 66.771108)"><g><path d="M 4.03125 0 L 4.03125 -34.328125 L 12.78125 -34.328125 L 13.453125 -31.296875 L 13.796875 -31.296875 C 14.472656 -32.234375 15.550781 -33.082031 17.03125 -33.84375 C 18.507812 -34.613281 20.144531 -35 21.9375 -35 C 24.175781 -35 26.113281 -34.503906 27.75 -33.515625 C 29.394531 -32.523438 30.578125 -31.445312 31.296875 -30.28125 L 31.625 -30.28125 C 32.476562 -31.539062 33.8125 -32.640625 35.625 -33.578125 C 37.445312 -34.523438 39.546875 -35 41.921875 -35 C 44.304688 -35 46.472656 -34.390625 48.421875 -33.171875 C 50.367188 -31.960938 51.90625 -30.300781 53.03125 -28.1875 C 54.15625 -26.082031 54.71875 -23.707031 54.71875 -21.0625 L 54.71875 0 L 44.546875 0 L 44.546875 -19.578125 C 44.546875 -21.421875 44.109375 -22.832031 43.234375 -23.8125 C 42.359375 -24.800781 41.179688 -25.296875 39.703125 -25.296875 C 38.179688 -25.296875 36.925781 -24.757812 35.9375 -23.6875 C 34.945312 -22.613281 34.453125 -21.242188 34.453125 -19.578125 L 34.453125 0 L 24.296875 0 L 24.296875 -19.578125 C 24.296875 -21.421875 23.859375 -22.832031 22.984375 -23.8125 C 22.109375 -24.800781 20.929688 -25.296875 19.453125 -25.296875 C 17.921875 -25.296875 16.660156 -24.769531 15.671875 -23.71875 C 14.691406 -22.664062 14.203125 -21.285156 14.203125 -19.578125 L 14.203125 0 Z M 4.03125 0 "/></g></g></g><g fill="#e4e2dd" fill-opacity="1"><g transform="translate(58.52548, 66.771108)"><g><path d="M 14.203125 0 L 4.03125 0 L 4.03125 -34.328125 L 14.203125 -34.328125 Z M 14.46875 -39.296875 L 3.828125 -39.296875 L 3.828125 -48.125 L 14.46875 -48.125 Z M 14.46875 -39.296875 "/></g></g></g><g fill="#e4e2dd" fill-opacity="1"><g transform="translate(76.759788, 66.771108)"><g><path d="M 4.03125 0 L 4.03125 -34.328125 L 12.78125 -34.328125 L 13.453125 -31.296875 L 13.796875 -31.296875 C 14.472656 -32.234375 15.550781 -33.082031 17.03125 -33.84375 C 18.507812 -34.613281 20.144531 -35 21.9375 -35 C 24.175781 -35 26.113281 -34.503906 27.75 -33.515625 C 29.394531 -32.523438 30.578125 -31.445312 31.296875 -30.28125 L 31.625 -30.28125 C 32.476562 -31.539062 33.8125 -32.640625 35.625 -33.578125 C 37.445312 -34.523438 39.546875 -35 41.921875 -35 C 44.304688 -35 46.472656 -34.390625 48.421875 -33.171875 C 50.367188 -31.960938 51.90625 -30.300781 53.03125 -28.1875 C 54.15625 -26.082031 54.71875 -23.707031 54.71875 -21.0625 L 54.71875 0 L 44.546875 0 L 44.546875 -19.578125 C 44.546875 -21.421875 44.109375 -22.832031 43.234375 -23.8125 C 42.359375 -24.800781 41.179688 -25.296875 39.703125 -25.296875 C 38.179688 -25.296875 36.925781 -24.757812 35.9375 -23.6875 C 34.945312 -22.613281 34.453125 -21.242188 34.453125 -19.578125 L 34.453125 0 L 24.296875 0 L 24.296875 -19.578125 C 24.296875 -21.421875 23.859375 -22.832031 22.984375 -23.8125 C 22.109375 -24.800781 20.929688 -25.296875 19.453125 -25.296875 C 17.921875 -25.296875 16.660156 -24.769531 15.671875 -23.71875 C 14.691406 -22.664062 14.203125 -21.285156 14.203125 -19.578125 L 14.203125 0 Z M 4.03125 0 "/></g></g></g><g fill="#e4e2dd" fill-opacity="1"><g transform="translate(135.163372, 66.771108)"><g><path d="M 14.203125 0 L 4.03125 0 L 4.03125 -34.328125 L 14.203125 -34.328125 Z M 14.46875 -39.296875 L 3.828125 -39.296875 L 3.828125 -48.125 L 14.46875 -48.125 Z M 14.46875 -39.296875 "/></g></g></g><g fill="#e4e2dd" fill-opacity="1"><g transform="translate(153.397681, 66.771108)"><g><path d="M 20.390625 0.671875 C 16.984375 0.671875 13.910156 -0.0976562 11.171875 -1.640625 C 8.429688 -3.191406 6.273438 -5.320312 4.703125 -8.03125 C 3.140625 -10.75 2.359375 -13.789062 2.359375 -17.15625 C 2.359375 -20.519531 3.140625 -23.554688 4.703125 -26.265625 C 6.273438 -28.984375 8.429688 -31.117188 11.171875 -32.671875 C 13.910156 -34.222656 16.984375 -35 20.390625 -35 C 23.710938 -35 26.582031 -34.300781 29 -32.90625 C 31.425781 -31.519531 33.332031 -29.757812 34.71875 -27.625 C 36.113281 -25.488281 37.015625 -23.253906 37.421875 -20.921875 L 27.125 -20.921875 C 26.71875 -22.179688 25.972656 -23.269531 24.890625 -24.1875 C 23.816406 -25.113281 22.316406 -25.578125 20.390625 -25.578125 C 18.191406 -25.578125 16.335938 -24.789062 14.828125 -23.21875 C 13.328125 -21.644531 12.578125 -19.625 12.578125 -17.15625 C 12.578125 -14.6875 13.328125 -12.65625 14.828125 -11.0625 C 16.335938 -9.476562 18.191406 -8.6875 20.390625 -8.6875 C 22.316406 -8.6875 23.816406 -9.15625 24.890625 -10.09375 C 25.972656 -11.03125 26.71875 -12.175781 27.125 -13.53125 L 37.421875 -13.53125 C 37.015625 -11.144531 36.113281 -8.875 34.71875 -6.71875 C 33.332031 -4.570312 31.4375 -2.800781 29.03125 -1.40625 C 26.632812 -0.0195312 23.753906 0.671875 20.390625 0.671875 Z M 20.390625 0.671875 "/></g></g></g><g fill="#e4e2dd" fill-opacity="1"><g transform="translate(192.826814, 66.771108)"><g><path d="M 4.03125 0 L 4.03125 -34.328125 L 12.78125 -34.328125 L 13.453125 -31.625 L 13.796875 -31.625 C 14.285156 -32.34375 15.066406 -32.972656 16.140625 -33.515625 C 17.222656 -34.054688 18.460938 -34.328125 19.859375 -34.328125 L 26.375 -34.328125 L 26.375 -24.703125 L 20.328125 -24.703125 C 16.242188 -24.703125 14.203125 -22.613281 14.203125 -18.4375 L 14.203125 0 Z M 4.03125 0 "/></g></g></g><g fill="#e4e2dd" fill-opacity="1"><g transform="translate(220.144627, 66.771108)"><g><path d="M 26.71875 -34.328125 L 37.484375 -34.328125 L 22.875 6.453125 C 21.976562 8.921875 20.800781 10.703125 19.34375 11.796875 C 17.882812 12.898438 15.65625 13.453125 12.65625 13.453125 L 3.96875 13.453125 L 3.96875 4.109375 L 10.90625 4.109375 C 12.019531 4.109375 12.757812 3.632812 13.125 2.6875 L 13.53125 1.609375 L -0.34375 -34.328125 L 10.4375 -34.328125 L 18.3125 -13.25 L 19.65625 -13.25 Z M 26.71875 -34.328125 "/></g></g></g></g></g></g></g></svg>